<svg viewBox="0 0 24 24" fill="currentColor" width="40px" height="40px" data-ux="UtilitiesMenuIcon" data-typography="NavAlpha" class="x-el x-el-svg c2-g c2-h c2-16 c2-1h c2-1i c2-1j c2-1a c2-1k c2-1l c2-1m c2-1n c2-1g c2-1b c2-m c2-3 c2-p c2-q c2-10 c2-11 c2-12 c2-1o c2-13 c2-14 c2-15"><path fill-rule="evenodd" d="M5.643 19.241a.782.782 0 0 1-.634-.889c.317-2.142 1.62-4.188 3.525-5.244l.459-.254-.39-.352a4.89 4.89 0 0 1-.797-6.327 4.747 4.747 0 0 1 2.752-2.003 4.894 4.894 0 0 1 6.092 5.72c-.211 1.042-.802 1.97-1.59 2.683l-.308.28.459.253c1.876 1.04 3.185 3.131 3.53 5.26a.765.765 0 0 1-.742.883c-.367.005-.697-.25-.753-.613-.52-3.384-4.067-6.087-7.702-4.324-1.628.79-2.714 2.511-3.014 4.313a.76.76 0 0 1-.887.614zm2.873-10.36a3.36 3.36 0 0 0 3.356 3.355A3.36 3.36 0 0 0 15.23 8.88a3.361 3.361 0 0 0-3.358-3.357A3.36 3.36 0 0 0 8.516 8.88z"></path></svg>